<svg xmlns="http://www.w3.org/2000/svg"><style>:root svg:not(:target){display:none}</style><svg fill="none" viewBox="0 0 60 60" id="advantages-1"><path fill="#68B738" d="M0 0h60v60h-60z"></path><g clip-path="url(#advantages-1_0)"><path fill="#fff" d="M42.84 16.77a.95.95 0 0 0-.9-.77h-.01c-4.94.03-16.95.92-21.8 8.38-2.51 3.88-2.73 8.91-.64 14.97l.07.12a25.82 25.82 0 0 0-1.04 3.32 1 1 0 0 0 .72 1.19.88.88 0 0 0 .2.02c.43 0 .81-.32.9-.79.03-.1 2.42-10.37 10.86-16.38.43-.3.55-.92.26-1.38a.9.9 0 0 0-1.3-.28c-4.79 3.4-7.74 8-9.47 11.65-1.24-4.57-.92-8.37.99-11.3 3.74-5.77 12.62-7.16 17.98-7.45-1.15 1.8-2.41 5.1-2.41 10.93 0 3.12-.83 5.52-2.47 7.14-2.62 2.6-6.88 2.83-10 2.58-.51-.04-.96.38-1 .93-.04.55.35 1.03.86 1.07.63.05 1.3.08 1.98.08 3.17 0 6.87-.66 9.43-3.2 2.04-2 3.07-4.9 3.07-8.6 0-9.1 3.22-11.1 3.23-11.1.4-.21.6-.68.5-1.13Z"></path></g><defs><clipPath id="advantages-1_0"><path fill="#fff" d="M15 14h30v32h-30z"></path></clipPath></defs></svg><svg fill="none" viewBox="0 0 60 60" id="advantages-2"><path fill="#68B738" d="M0 0h60v60h-60z"></path><path fill="#fff" d="M28.38 16c-1.64 0-2.9 1.36-2.9 3.08s1.26 3.08 2.9 3.08 2.9-1.36 2.9-3.08-1.27-3.08-2.9-3.08Zm0 1.18c1 0 1.72.84 1.72 1.9 0 1-.8 1.9-1.73 1.9-1 0-1.72-.84-1.72-1.9 0-1 .78-1.9 1.73-1.9Zm-10.88 23.56c0 1.18.4 2.18 1.36 3 1 .84 2.17.77 2.17.77h19.04c.78 0 1.8-.38 2.62-1.45.85-1 .8-2.36.8-2.36v-17.21c0-.44-.12-.6-.75-.6s-.69.27-.69.59v17.21c-.02.3-.07 1.1-.74 1.73-.74.62-1.45.54-1.45.54s-18.13 0-19.03-.03a2.14 2.14 0 0 1-1.45-.9c-.51-.73-.41-1.63-.41-1.63v-17.22c0-.47-.24-.64-.73-.64s-.74.18-.74.58v17.62Zm16.31-16.31c-1.08.23-2.17.38-4.26 2.35-2.08 2-3.62 1.9-5.16 1.82-1.54-.1-3.17-1.54-3.45-1.9-.33-.36-.9-.12-1.08.11-.16.24-.16.64.1 1 1.27 1.18 2.45 2.08 4.72 2.26a7.5 7.5 0 0 0 5.89-2.26c1.45-1.45 2.17-1.72 3.26-1.9a6.3 6.3 0 0 1 5.08 1.27c1 1.08 1.26.77 1.54.47.54-.72-.23-1.27-1.1-1.9a7.24 7.24 0 0 0-5.52-1.28l-.02-.04Zm-9.06 7.16c-1.18 0-2.08 1-2.08 2.26 0 1.27.9 2.27 2.08 2.27s2.08-1 2.08-2.27-.9-2.26-2.08-2.26Zm11.78.78c-1.54 0-2.8 1.36-2.8 2.99 0 1.63 1.26 2.99 2.8 2.99s2.81-1.36 2.81-3c0-1.62-1.27-2.98-2.8-2.98Zm0 1.45c.8 0 1.45.7 1.45 1.54a1.5 1.5 0 0 1-1.45 1.54c-.8 0-1.45-.7-1.45-1.54 0-.86.65-1.54 1.45-1.54Z"></path></svg><svg fill="none" viewBox="0 0 60 60" id="advantages-3"><path fill="#68B738" d="M0 0h60v60h-60z"></path><path fill="#fff" fill-rule="evenodd" d="M36.12 15.08a1 1 0 0 1 1.09.21c.9.91 2.1 2.88 3.06 5.92.97 3.07 1.73 7.3 1.73 12.79a1 1 0 0 1-1 1h-3.5v9a1 1 0 1 1-2 0v-28a1 1 0 0 1 .62-.92Zm1.38 17.92h2.5a39.63 39.63 0 0 0-1.64-11.19 22.2 22.2 0 0 0-.86-2.3v13.49Zm-14-18a1 1 0 0 1 1 1v28a1 1 0 1 1-2 0v-28a1 1 0 0 1 1-1Z" clip-rule="evenodd"></path><path fill="#fff" fill-rule="evenodd" d="M19 15a1 1 0 0 1 1 1v5.5c0 .56.2 1.31.7 1.92.48.56 1.31 1.08 2.8 1.08a1 1 0 1 1 0 2 5.41 5.41 0 0 1-4.33-1.8 5.07 5.07 0 0 1-1.17-3.2v-5.5a1 1 0 0 1 1-1Z" clip-rule="evenodd"></path><path fill="#fff" fill-rule="evenodd" d="M28 15a1 1 0 0 0-1 1v5.5a3.07 3.07 0 0 1-.7 1.92c-.48.56-1.31 1.08-2.8 1.08a1 1 0 0 0 0 2 5.4 5.4 0 0 0 4.33-1.8 5.07 5.07 0 0 0 1.17-3.2v-5.5a1 1 0 0 0-1-1Z" clip-rule="evenodd"></path></svg><svg fill="none" viewBox="0 0 60 60" id="advantages-4"><path fill="#68B738" d="M0 0h60v60h-60z"></path><path fill="#fff" d="M23.12 15c-1.07 0-1.07 1.58 0 1.58h6.67v1.6a13.21 13.21 0 0 0-12.23 13.3 13.4 13.4 0 0 0 4.52 10.07c.48.43.54 1.18.1 1.64l-1.53 1.55c-.75.69.36 1.75 1.03 1l2-2.03a1.16 1.16 0 0 1 1.32-.21 12.79 12.79 0 0 0 11.1.06c.43-.21.96-.13 1.3.21l1.95 1.97c.68.64 1.66-.31 1.04-1l-1.45-1.48c-.45-.45-.38-1.2.1-1.63a13.47 13.47 0 0 0 3.42-4.58 13.34 13.34 0 0 0 1.2-5.57c0-7.08-5.43-12.88-12.27-13.3v-1.6h6.67c1.06 0 1.06-1.58 0-1.58h-14.94Zm-4.12 16.48a11.7 11.7 0 0 1 11.6-11.82c6.4 0 11.6 5.28 11.6 11.82s-5.19 11.84-11.6 11.84c-6.4 0-11.6-5.3-11.6-11.84Zm10.8-8.1c0-1.1 1.66-1.1 1.66 0v8.63a.84.84 0 0 1-.25.6.86.86 0 0 1-.6.25.82.82 0 0 1-.57-.23.8.8 0 0 1-.24-.56v-8.69Zm-5 2.62c.31 0 .61-.12.83-.34a1.14 1.14 0 0 0 0-1.63 1.17 1.17 0 0 0-.82-.33c-.3.02-.56.16-.75.37a1.14 1.14 0 0 0 0 1.55c.2.2.46.34.75.37Zm11.6 0c.31 0 .6-.12.82-.34a1.14 1.14 0 0 0 0-1.63 1.17 1.17 0 0 0-.82-.33c-.29.02-.55.16-.75.37a1.14 1.14 0 0 0 0 1.55c.2.2.46.34.75.37Zm-10.43 12.59c0 1.53-2.33 1.53-2.33 0s2.33-1.53 2.33 0Zm4.64 3.44a1.18 1.18 0 0 0 .9-.3 1.15 1.15 0 0 0 .37-.85 1.14 1.14 0 0 0-.38-.85 1.17 1.17 0 0 0-.9-.3c-.28.04-.55.17-.74.38a1.14 1.14 0 0 0 0 1.55c.2.2.46.34.75.37Zm-8.12-10.39a1.14 1.14 0 0 1-.3.89 1.16 1.16 0 0 1-.86.37 1.17 1.17 0 0 1-.86-.37 1.15 1.15 0 0 1-.3-.89c.03-.28.17-.55.38-.74a1.17 1.17 0 0 1 1.57 0c.21.2.34.46.37.74Zm17.39 1.15a1.17 1.17 0 0 0 .9-.29 1.15 1.15 0 0 0 .37-.85 1.14 1.14 0 0 0-.38-.85 1.16 1.16 0 0 0-.9-.3c-.28.03-.54.16-.74.38a1.14 1.14 0 0 0 0 1.54c.2.21.46.35.75.37Zm-2.31 5.8c0 1.53-2.33 1.53-2.33 0s2.33-1.53 2.33 0Z"></path></svg><svg viewBox="0 0 20 20" fill="none" id="email-stroke-1"><path d="M1.5 8.5v8h17v-8m-17-5h17v2l-8.5 6-8.5-6v-2Z" stroke="#000" stroke-linecap="round" stroke-linejoin="round"></path></svg><svg viewBox="0 0 32 12" fill="none" id="icon_arrow"><path stroke="#000" stroke-width="2" d="M0 6h18"></path><path d="m24 6-6.75 5.2v-10.4l6.75 5.2Z" fill="#000"></path></svg><svg viewBox="0 0 80 83" fill="none" id="icon_gift"><path d="M65.66 36.01h-51.27a3.27 3.27 0 0 1-3.26-3.27v-9.83c0-1.8 1.46-3.28 3.26-3.28h51.27c1.8 0 3.26 1.47 3.26 3.28v9.83c0 1.8-1.46 3.27-3.26 3.27Zm-51.27-13.86a.78.78 0 0 0-.76.76v9.83c0 .42.34.76.76.76h51.27c.42 0 .76-.34.76-.76v-9.83a.77.77 0 0 0-.76-.76h-51.27Z" fill="#fff"></path><path d="M58.5 69.67h-36.96a6.3 6.3 0 0 1-6.28-6.32v-28.6a1.25 1.25 0 1 1 2.5.01v28.6a3.8 3.8 0 0 0 3.78 3.8h36.97a3.8 3.8 0 0 0 3.78-3.8v-28.6a1.25 1.25 0 1 1 2.5 0v28.6a6.3 6.3 0 0 1-6.28 6.3Z" fill="#fff"></path><path d="M40.02 69.67c-.69 0-1.25-.57-1.25-1.26v-33.65a1.25 1.25 0 1 1 2.5 0v33.65c0 .7-.56 1.26-1.25 1.26Zm-15.6-47.53a8.15 8.15 0 0 1-3.25-11 8.06 8.06 0 0 1 10.94-3.27c5.96 3.25 9.18 12.3 9.31 12.7l-2.36.82c-.03-.08-3.03-8.53-8.14-11.3a5.56 5.56 0 0 0-7.55 2.25 5.62 5.62 0 0 0 2.24 7.6l-1.19 2.2Z" fill="#fff"></path><path d="m55.62 22.14-1.19-2.2a5.58 5.58 0 0 0-5.3-9.85c-5.1 2.77-8.12 11.22-8.15 11.3l-2.36-.83c.14-.38 3.36-9.44 9.32-12.69a8.02 8.02 0 0 1 10.94 3.27 8.1 8.1 0 0 1-3.26 11Zm7.92 30.7h-47.03a1.25 1.25 0 0 1 0-2.51h47.03a1.25 1.25 0 0 1 0 2.51Z" fill="#fff"></path></svg><svg viewBox="0 0 20 20" fill="none" id="phone-stroke-1"><path d="M10 10h8.5m0 0-2.5-2.5m2.5 2.5-2.5 2.5m-7.5-10v5h-3v5h3v5h-2.5c-1.5 0-2.5-1-2.5-2.5v-10c0-1.5 1-2.5 2.5-2.5h2.5Z" stroke="#000" stroke-linecap="round" stroke-linejoin="round"></path></svg><svg viewBox="0 0 61 61" fill="none" id="plus"><path stroke="#D3D3D3" stroke-width="2" d="M31.5.5v60m29-29h-60"></path></svg><svg viewBox="0 0 26 26" fill="none" id="tick"><path d="m10 19.5-7.6-8.6-1.4 1.58 9 10.19 15-16.97-1.4-1.7-13.6 15.5Z" fill="#68B738"></path></svg></svg>